<?xml version="1.0" encoding="UTF-8" standalone="no"?>
<svg width="24px" height="24px" viewBox="0 0 24 24" version="1.1" xmlns="http://www.w3.org/2000/svg" xmlns:xlink="http://www.w3.org/1999/xlink">
    <!-- Generator: Sketch 3.8.3 (29802) - http://www.bohemiancoding.com/sketch -->
    <title>1482295606_interface-28</title>
    <desc>Created with Sketch.</desc>
    <defs></defs>
    <g id="Page-1" stroke="none" stroke-width="1" fill="none" fill-rule="evenodd">
        <g id="1482295606_interface-28" transform="translate(0.000000, -1.000000)" fill="#FFFFFF">
            <path d="M23.7,12.6 L21.4,11 L23.7,9.4 C24.1,9.1 24.1,8.7 23.7,8.5 L12.7,1.2 C12.3,0.9 11.7,0.9 11.3,1.2 L0.3,8.5 C-0.1,8.8 -0.1,9.2 0.3,9.4 L2.6,11 L0.3,12.6 C-0.1,12.9 -0.1,13.3 0.3,13.5 L2.6,15 L0.3,16.5 C-0.1,16.8 -0.1,17.2 0.3,17.4 L11.3,24.7 C11.7,25 12.3,25 12.7,24.7 L23.7,17.4 C24.1,17.1 24.1,16.7 23.7,16.5 L21.4,15 L23.7,13.5 C24.1,13.2 24.1,12.8 23.7,12.6 L23.7,12.6 Z M2.7,9 L12,2.9 L21.2,9 L12,15.2 L2.7,9 L2.7,9 Z M21.2,17 L12,23.2 L2.7,17 L4.1,16 L11.3,20.8 C11.7,21.1 12.3,21.1 12.7,20.8 L19.9,16 L21.2,17 L21.2,17 Z M12,19.2 L2.7,13 L4.2,12 L11.3,16.7 C11.7,17 12.3,17 12.7,16.7 L19.8,12 L21.3,13 L12,19.2 L12,19.2 Z" id="Shape"></path>
        </g>
    </g>
</svg>